<svg class="rich-terminal" viewBox="0 0 1238 782.0" xmlns="http://www.w3.org/2000/svg">
    <!-- Generated with Rich https://www.textualize.io -->
    <style>

    @font-face {
        font-family: "Fira Code";
        src: local("FiraCode-Regular"),
                url("https://cdnjs.cloudflare.com/ajax/libs/firacode/6.2.0/woff2/FiraCode-Regular.woff2") format("woff2"),
                url("https://cdnjs.cloudflare.com/ajax/libs/firacode/6.2.0/woff/FiraCode-Regular.woff") format("woff");
        font-style: normal;
        font-weight: 400;
    }
    @font-face {
        font-family: "Fira Code";
        src: local("FiraCode-Bold"),
                url("https://cdnjs.cloudflare.com/ajax/libs/firacode/6.2.0/woff2/FiraCode-Bold.woff2") format("woff2"),
                url("https://cdnjs.cloudflare.com/ajax/libs/firacode/6.2.0/woff/FiraCode-Bold.woff") format("woff");
        font-style: bold;
        font-weight: 700;
    }

    .terminal-1578198466-matrix {
        font-family: Fira Code, monospace;
        font-size: 20px;
        line-height: 24.4px;
        font-variant-east-asian: full-width;
    }

    .terminal-1578198466-title {
        font-size: 18px;
        font-weight: bold;
        font-family: arial;
    }

    .terminal-1578198466-r1 { fill: #c5c8c6 }
.terminal-1578198466-r2 { fill: #fed700 }
.terminal-1578198466-r3 { fill: #5fd7ff }
.terminal-1578198466-r4 { fill: #00afff }
.terminal-1578198466-r5 { fill: #b0b0b0 }
.terminal-1578198466-r6 { fill: #fed700;font-weight: bold }
.terminal-1578198466-r7 { fill: #606060 }
.terminal-1578198466-r8 { fill: #5fd7ff;font-weight: bold }
.terminal-1578198466-r9 { fill: #040a0c;font-weight: bold }
    </style>

    <defs>
    <clipPath id="terminal-1578198466-clip-terminal">
      <rect x="0" y="0" width="1219.0" height="731.0" />
    </clipPath>
    <clipPath id="terminal-1578198466-line-0">
    <rect x="0" y="1.5" width="1220" height="24.65"/>
            </clipPath>
<clipPath id="terminal-1578198466-line-1">
    <rect x="0" y="25.9" width="1220" height="24.65"/>
            </clipPath>
<clipPath id="terminal-1578198466-line-2">
    <rect x="0" y="50.3" width="1220" height="24.65"/>
            </clipPath>
<clipPath id="terminal-1578198466-line-3">
    <rect x="0" y="74.7" width="1220" height="24.65"/>
            </clipPath>
<clipPath id="terminal-1578198466-line-4">
    <rect x="0" y="99.1" width="1220" height="24.65"/>
            </clipPath>
<clipPath id="terminal-1578198466-line-5">
    <rect x="0" y="123.5" width="1220" height="24.65"/>
            </clipPath>
<clipPath id="terminal-1578198466-line-6">
    <rect x="0" y="147.9" width="1220" height="24.65"/>
            </clipPath>
<clipPath id="terminal-1578198466-line-7">
    <rect x="0" y="172.3" width="1220" height="24.65"/>
            </clipPath>
<clipPath id="terminal-1578198466-line-8">
    <rect x="0" y="196.7" width="1220" height="24.65"/>
            </clipPath>
<clipPath id="terminal-1578198466-line-9">
    <rect x="0" y="221.1" width="1220" height="24.65"/>
            </clipPath>
<clipPath id="terminal-1578198466-line-10">
    <rect x="0" y="245.5" width="1220" height="24.65"/>
            </clipPath>
<clipPath id="terminal-1578198466-line-11">
    <rect x="0" y="269.9" width="1220" height="24.65"/>
            </clipPath>
<clipPath id="terminal-1578198466-line-12">
    <rect x="0" y="294.3" width="1220" height="24.65"/>
            </clipPath>
<clipPath id="terminal-1578198466-line-13">
    <rect x="0" y="318.7" width="1220" height="24.65"/>
            </clipPath>
<clipPath id="terminal-1578198466-line-14">
    <rect x="0" y="343.1" width="1220" height="24.65"/>
            </clipPath>
<clipPath id="terminal-1578198466-line-15">
    <rect x="0" y="367.5" width="1220" height="24.65"/>
            </clipPath>
<clipPath id="terminal-1578198466-line-16">
    <rect x="0" y="391.9" width="1220" height="24.65"/>
            </clipPath>
<clipPath id="terminal-1578198466-line-17">
    <rect x="0" y="416.3" width="1220" height="24.65"/>
            </clipPath>
<clipPath id="terminal-1578198466-line-18">
    <rect x="0" y="440.7" width="1220" height="24.65"/>
            </clipPath>
<clipPath id="terminal-1578198466-line-19">
    <rect x="0" y="465.1" width="1220" height="24.65"/>
            </clipPath>
<clipPath id="terminal-1578198466-line-20">
    <rect x="0" y="489.5" width="1220" height="24.65"/>
            </clipPath>
<clipPath id="terminal-1578198466-line-21">
    <rect x="0" y="513.9" width="1220" height="24.65"/>
            </clipPath>
<clipPath id="terminal-1578198466-line-22">
    <rect x="0" y="538.3" width="1220" height="24.65"/>
            </clipPath>
<clipPath id="terminal-1578198466-line-23">
    <rect x="0" y="562.7" width="1220" height="24.65"/>
            </clipPath>
<clipPath id="terminal-1578198466-line-24">
    <rect x="0" y="587.1" width="1220" height="24.65"/>
            </clipPath>
<clipPath id="terminal-1578198466-line-25">
    <rect x="0" y="611.5" width="1220" height="24.65"/>
            </clipPath>
<clipPath id="terminal-1578198466-line-26">
    <rect x="0" y="635.9" width="1220" height="24.65"/>
            </clipPath>
<clipPath id="terminal-1578198466-line-27">
    <rect x="0" y="660.3" width="1220" height="24.65"/>
            </clipPath>
<clipPath id="terminal-1578198466-line-28">
    <rect x="0" y="684.7" width="1220" height="24.65"/>
            </clipPath>
    </defs>

    <rect fill="#292929" stroke="rgba(255,255,255,0.35)" stroke-width="1" x="1" y="1" width="1236" height="780" rx="8"/><text class="terminal-1578198466-title" fill="#c5c8c6" text-anchor="middle" x="618" y="27">Kubetrol</text>
            <g transform="translate(26,22)">
            <circle cx="0" cy="0" r="7" fill="#ff5f57"/>
            <circle cx="22" cy="0" r="7" fill="#febc2e"/>
            <circle cx="44" cy="0" r="7" fill="#28c840"/>
            </g>
        
    <g transform="translate(9, 41)" clip-path="url(#terminal-1578198466-clip-terminal)">
    <rect fill="#000000" x="0" y="1.5" width="12.2" height="24.65" shape-rendering="crispEdges"/><rect fill="#000000" x="12.2" y="1.5" width="97.6" height="24.65" shape-rendering="crispEdges"/><rect fill="#000000" x="109.8" y="1.5" width="219.6" height="24.65" shape-rendering="crispEdges"/><rect fill="#000000" x="329.4" y="1.5" width="158.6" height="24.65" shape-rendering="crispEdges"/><rect fill="#000000" x="488" y="1.5" width="36.6" height="24.65" shape-rendering="crispEdges"/><rect fill="#000000" x="524.6" y="1.5" width="256.2" height="24.65" shape-rendering="crispEdges"/><rect fill="#000000" x="780.8" y="1.5" width="36.6" height="24.65" shape-rendering="crispEdges"/><rect fill="#000000" x="817.4" y="1.5" width="256.2" height="24.65" shape-rendering="crispEdges"/><rect fill="#000000" x="1073.6" y="1.5" width="12.2" height="24.65" shape-rendering="crispEdges"/><rect fill="#000000" x="1085.8" y="1.5" width="122" height="24.65" shape-rendering="crispEdges"/><rect fill="#000000" x="1207.8" y="1.5" width="12.2" height="24.65" shape-rendering="crispEdges"/><rect fill="#000000" x="0" y="25.9" width="12.2" height="24.65" shape-rendering="crispEdges"/><rect fill="#000000" x="12.2" y="25.9" width="97.6" height="24.65" shape-rendering="crispEdges"/><rect fill="#000000" x="109.8" y="25.9" width="73.2" height="24.65" shape-rendering="crispEdges"/><rect fill="#000000" x="183" y="25.9" width="305" height="24.65" shape-rendering="crispEdges"/><rect fill="#000000" x="488" y="25.9" width="36.6" height="24.65" shape-rendering="crispEdges"/><rect fill="#000000" x="524.6" y="25.9" width="256.2" height="24.65" shape-rendering="crispEdges"/><rect fill="#000000" x="780.8" y="25.9" width="36.6" height="24.65" shape-rendering="crispEdges"/><rect fill="#000000" x="817.4" y="25.9" width="256.2" height="24.65" shape-rendering="crispEdges"/><rect fill="#000000" x="1073.6" y="25.9" width="12.2" height="24.65" shape-rendering="crispEdges"/><rect fill="#000000" x="1085.8" y="25.9" width="122" height="24.65" shape-rendering="crispEdges"/><rect fill="#000000" x="1207.8" y="25.9" width="12.2" height="24.65" shape-rendering="crispEdges"/><rect fill="#000000" x="0" y="50.3" width="12.2" height="24.65" shape-rendering="crispEdges"/><rect fill="#000000" x="12.2" y="50.3" width="61" height="24.65" shape-rendering="crispEdges"/><rect fill="#000000" x="73.2" y="50.3" width="73.2" height="24.65" shape-rendering="crispEdges"/><rect fill="#000000" x="146.4" y="50.3" width="341.6" height="24.65" shape-rendering="crispEdges"/><rect fill="#000000" x="488" y="50.3" width="36.6" height="24.65" shape-rendering="crispEdges"/><rect fill="#000000" x="524.6" y="50.3" width="256.2" height="24.65" shape-rendering="crispEdges"/><rect fill="#000000" x="780.8" y="50.3" width="97.6" height="24.65" shape-rendering="crispEdges"/><rect fill="#000000" x="878.4" y="50.3" width="195.2" height="24.65" shape-rendering="crispEdges"/><rect fill="#000000" x="1073.6" y="50.3" width="12.2" height="24.65" shape-rendering="crispEdges"/><rect fill="#000000" x="1085.8" y="50.3" width="122" height="24.65" shape-rendering="crispEdges"/><rect fill="#000000" x="1207.8" y="50.3" width="12.2" height="24.65" shape-rendering="crispEdges"/><rect fill="#000000" x="0" y="74.7" width="12.2" height="24.65" shape-rendering="crispEdges"/><rect fill="#000000" x="12.2" y="74.7" width="122" height="24.65" shape-rendering="crispEdges"/><rect fill="#000000" x="134.2" y="74.7" width="97.6" height="24.65" shape-rendering="crispEdges"/><rect fill="#000000" x="231.8" y="74.7" width="256.2" height="24.65" shape-rendering="crispEdges"/><rect fill="#000000" x="488" y="74.7" width="36.6" height="24.65" shape-rendering="crispEdges"/><rect fill="#000000" x="524.6" y="74.7" width="256.2" height="24.65" shape-rendering="crispEdges"/><rect fill="#000000" x="780.8" y="74.7" width="97.6" height="24.65" shape-rendering="crispEdges"/><rect fill="#000000" x="878.4" y="74.7" width="195.2" height="24.65" shape-rendering="crispEdges"/><rect fill="#000000" x="1073.6" y="74.7" width="12.2" height="24.65" shape-rendering="crispEdges"/><rect fill="#000000" x="1085.8" y="74.7" width="122" height="24.65" shape-rendering="crispEdges"/><rect fill="#000000" x="1207.8" y="74.7" width="12.2" height="24.65" shape-rendering="crispEdges"/><rect fill="#000000" x="0" y="99.1" width="12.2" height="24.65" shape-rendering="crispEdges"/><rect fill="#000000" x="12.2" y="99.1" width="73.2" height="24.65" shape-rendering="crispEdges"/><rect fill="#000000" x="85.4" y="99.1" width="122" height="24.65" shape-rendering="crispEdges"/><rect fill="#000000" x="207.4" y="99.1" width="280.6" height="24.65" shape-rendering="crispEdges"/><rect fill="#000000" x="488" y="99.1" width="36.6" height="24.65" shape-rendering="crispEdges"/><rect fill="#000000" x="524.6" y="99.1" width="256.2" height="24.65" shape-rendering="crispEdges"/><rect fill="#000000" x="780.8" y="99.1" width="36.6" height="24.65" shape-rendering="crispEdges"/><rect fill="#000000" x="817.4" y="99.1" width="256.2" height="24.65" shape-rendering="crispEdges"/><rect fill="#000000" x="1073.6" y="99.1" width="12.2" height="24.65" shape-rendering="crispEdges"/><rect fill="#000000" x="1085.8" y="99.1" width="122" height="24.65" shape-rendering="crispEdges"/><rect fill="#000000" x="1207.8" y="99.1" width="12.2" height="24.65" shape-rendering="crispEdges"/><rect fill="#000000" x="0" y="123.5" width="12.2" height="24.65" shape-rendering="crispEdges"/><rect fill="#000000" x="12.2" y="123.5" width="390.4" height="24.65" shape-rendering="crispEdges"/><rect fill="#000000" x="402.6" y="123.5" width="85.4" height="24.65" shape-rendering="crispEdges"/><rect fill="#000000" x="488" y="123.5" width="36.6" height="24.65" shape-rendering="crispEdges"/><rect fill="#000000" x="524.6" y="123.5" width="256.2" height="24.65" shape-rendering="crispEdges"/><rect fill="#000000" x="780.8" y="123.5" width="36.6" height="24.65" shape-rendering="crispEdges"/><rect fill="#000000" x="817.4" y="123.5" width="256.2" height="24.65" shape-rendering="crispEdges"/><rect fill="#000000" x="1073.6" y="123.5" width="12.2" height="24.65" shape-rendering="crispEdges"/><rect fill="#000000" x="1085.8" y="123.5" width="122" height="24.65" shape-rendering="crispEdges"/><rect fill="#000000" x="1207.8" y="123.5" width="12.2" height="24.65" shape-rendering="crispEdges"/><rect fill="#000000" x="0" y="147.9" width="12.2" height="24.65" shape-rendering="crispEdges"/><rect fill="#000000" x="12.2" y="147.9" width="12.2" height="24.65" shape-rendering="crispEdges"/><rect fill="#000000" x="24.4" y="147.9" width="12.2" height="24.65" shape-rendering="crispEdges"/><rect fill="#000000" x="36.6" y="147.9" width="219.6" height="24.65" shape-rendering="crispEdges"/><rect fill="#000000" x="256.2" y="147.9" width="951.6" height="24.65" shape-rendering="crispEdges"/><rect fill="#000000" x="1207.8" y="147.9" width="12.2" height="24.65" shape-rendering="crispEdges"/><rect fill="#000000" x="0" y="172.3" width="12.2" height="24.65" shape-rendering="crispEdges"/><rect fill="#000000" x="12.2" y="172.3" width="585.6" height="24.65" shape-rendering="crispEdges"/><rect fill="#000000" x="597.8" y="172.3" width="610" height="24.65" shape-rendering="crispEdges"/><rect fill="#000000" x="1207.8" y="172.3" width="12.2" height="24.65" shape-rendering="crispEdges"/><rect fill="#000000" x="0" y="196.7" width="12.2" height="24.65" shape-rendering="crispEdges"/><rect fill="#000000" x="12.2" y="196.7" width="12.2" height="24.65" shape-rendering="crispEdges"/><rect fill="#000000" x="24.4" y="196.7" width="378.2" height="24.65" shape-rendering="crispEdges"/><rect fill="#000000" x="402.6" y="196.7" width="402.6" height="24.65" shape-rendering="crispEdges"/><rect fill="#000000" x="805.2" y="196.7" width="390.4" height="24.65" shape-rendering="crispEdges"/><rect fill="#000000" x="1195.6" y="196.7" width="12.2" height="24.65" shape-rendering="crispEdges"/><rect fill="#000000" x="1207.8" y="196.7" width="12.2" height="24.65" shape-rendering="crispEdges"/><rect fill="#000000" x="0" y="221.1" width="12.2" height="24.65" shape-rendering="crispEdges"/><rect fill="#000000" x="12.2" y="221.1" width="12.2" height="24.65" shape-rendering="crispEdges"/><rect fill="#000000" x="24.4" y="221.1" width="12.2" height="24.65" shape-rendering="crispEdges"/><rect fill="#000000" x="36.6" y="221.1" width="658.8" height="24.65" shape-rendering="crispEdges"/><rect fill="#000000" x="695.4" y="221.1" width="488" height="24.65" shape-rendering="crispEdges"/><rect fill="#000000" x="1183.4" y="221.1" width="12.2" height="24.65" shape-rendering="crispEdges"/><rect fill="#000000" x="1195.6" y="221.1" width="12.2" height="24.65" shape-rendering="crispEdges"/><rect fill="#000000" x="1207.8" y="221.1" width="12.2" height="24.65" shape-rendering="crispEdges"/><rect fill="#000000" x="0" y="245.5" width="12.2" height="24.65" shape-rendering="crispEdges"/><rect fill="#000000" x="12.2" y="245.5" width="12.2" height="24.65" shape-rendering="crispEdges"/><rect fill="#000000" x="24.4" y="245.5" width="73.2" height="24.65" shape-rendering="crispEdges"/><rect fill="#000000" x="97.6" y="245.5" width="134.2" height="24.65" shape-rendering="crispEdges"/><rect fill="#000000" x="231.8" y="245.5" width="85.4" height="24.65" shape-rendering="crispEdges"/><rect fill="#000000" x="317.2" y="245.5" width="85.4" height="24.65" shape-rendering="crispEdges"/><rect fill="#000000" x="402.6" y="245.5" width="122" height="24.65" shape-rendering="crispEdges"/><rect fill="#000000" x="524.6" y="245.5" width="85.4" height="24.65" shape-rendering="crispEdges"/><rect fill="#000000" x="610" y="245.5" width="97.6" height="24.65" shape-rendering="crispEdges"/><rect fill="#000000" x="707.6" y="245.5" width="97.6" height="24.65" shape-rendering="crispEdges"/><rect fill="#000000" x="805.2" y="245.5" width="97.6" height="24.65" shape-rendering="crispEdges"/><rect fill="#000000" x="902.8" y="245.5" width="109.8" height="24.65" shape-rendering="crispEdges"/><rect fill="#000000" x="1012.6" y="245.5" width="73.2" height="24.65" shape-rendering="crispEdges"/><rect fill="#000000" x="1085.8" y="245.5" width="109.8" height="24.65" shape-rendering="crispEdges"/><rect fill="#000000" x="1195.6" y="245.5" width="12.2" height="24.65" shape-rendering="crispEdges"/><rect fill="#000000" x="1207.8" y="245.5" width="12.2" height="24.65" shape-rendering="crispEdges"/><rect fill="#000000" x="0" y="269.9" width="12.2" height="24.65" shape-rendering="crispEdges"/><rect fill="#000000" x="12.2" y="269.9" width="12.2" height="24.65" shape-rendering="crispEdges"/><rect fill="#040a0c" x="24.4" y="269.9" width="61" height="24.65" shape-rendering="crispEdges"/><rect fill="#5fd7ff" x="85.4" y="269.9" width="97.6" height="24.65" shape-rendering="crispEdges"/><rect fill="#040a0c" x="183" y="269.9" width="73.2" height="24.65" shape-rendering="crispEdges"/><rect fill="#000000" x="256.2" y="269.9" width="61" height="24.65" shape-rendering="crispEdges"/><rect fill="#000000" x="317.2" y="269.9" width="97.6" height="24.65" shape-rendering="crispEdges"/><rect fill="#000000" x="414.8" y="269.9" width="73.2" height="24.65" shape-rendering="crispEdges"/><rect fill="#000000" x="488" y="269.9" width="73.2" height="24.65" shape-rendering="crispEdges"/><rect fill="#000000" x="561.2" y="269.9" width="73.2" height="24.65" shape-rendering="crispEdges"/><rect fill="#000000" x="634.4" y="269.9" width="85.4" height="24.65" shape-rendering="crispEdges"/><rect fill="#000000" x="719.8" y="269.9" width="73.2" height="24.65" shape-rendering="crispEdges"/><rect fill="#000000" x="793" y="269.9" width="73.2" height="24.65" shape-rendering="crispEdges"/><rect fill="#000000" x="866.2" y="269.9" width="85.4" height="24.65" shape-rendering="crispEdges"/><rect fill="#000000" x="951.6" y="269.9" width="85.4" height="24.65" shape-rendering="crispEdges"/><rect fill="#000000" x="1037" y="269.9" width="73.2" height="24.65" shape-rendering="crispEdges"/><rect fill="#000000" x="1110.2" y="269.9" width="85.4" height="24.65" shape-rendering="crispEdges"/><rect fill="#000000" x="1195.6" y="269.9" width="12.2" height="24.65" shape-rendering="crispEdges"/><rect fill="#000000" x="1207.8" y="269.9" width="12.2" height="24.65" shape-rendering="crispEdges"/><rect fill="#000000" x="0" y="294.3" width="12.2" height="24.65" shape-rendering="crispEdges"/><rect fill="#000000" x="12.2" y="294.3" width="12.2" height="24.65" shape-rendering="crispEdges"/><rect fill="#000000" x="24.4" y="294.3" width="268.4" height="24.65" shape-rendering="crispEdges"/><rect fill="#000000" x="292.8" y="294.3" width="902.8" height="24.65" shape-rendering="crispEdges"/><rect fill="#000000" x="1195.6" y="294.3" width="12.2" height="24.65" shape-rendering="crispEdges"/><rect fill="#000000" x="1207.8" y="294.3" width="12.2" height="24.65" shape-rendering="crispEdges"/><rect fill="#000000" x="0" y="318.7" width="12.2" height="24.65" shape-rendering="crispEdges"/><rect fill="#000000" x="12.2" y="318.7" width="12.2" height="24.65" shape-rendering="crispEdges"/><rect fill="#000000" x="24.4" y="318.7" width="1171.2" height="24.65" shape-rendering="crispEdges"/><rect fill="#000000" x="1195.6" y="318.7" width="12.2" height="24.65" shape-rendering="crispEdges"/><rect fill="#000000" x="1207.8" y="318.7" width="12.2" height="24.65" shape-rendering="crispEdges"/><rect fill="#000000" x="0" y="343.1" width="12.2" height="24.65" shape-rendering="crispEdges"/><rect fill="#000000" x="12.2" y="343.1" width="12.2" height="24.65" shape-rendering="crispEdges"/><rect fill="#000000" x="24.4" y="343.1" width="1171.2" height="24.65" shape-rendering="crispEdges"/><rect fill="#000000" x="1195.6" y="343.1" width="12.2" height="24.65" shape-rendering="crispEdges"/><rect fill="#000000" x="1207.8" y="343.1" width="12.2" height="24.65" shape-rendering="crispEdges"/><rect fill="#000000" x="0" y="367.5" width="12.2" height="24.65" shape-rendering="crispEdges"/><rect fill="#000000" x="12.2" y="367.5" width="12.2" height="24.65" shape-rendering="crispEdges"/><rect fill="#000000" x="24.4" y="367.5" width="1171.2" height="24.65" shape-rendering="crispEdges"/><rect fill="#000000" x="1195.6" y="367.5" width="12.2" height="24.65" shape-rendering="crispEdges"/><rect fill="#000000" x="1207.8" y="367.5" width="12.2" height="24.65" shape-rendering="crispEdges"/><rect fill="#000000" x="0" y="391.9" width="12.2" height="24.65" shape-rendering="crispEdges"/><rect fill="#000000" x="12.2" y="391.9" width="12.2" height="24.65" shape-rendering="crispEdges"/><rect fill="#000000" x="24.4" y="391.9" width="1171.2" height="24.65" shape-rendering="crispEdges"/><rect fill="#000000" x="1195.6" y="391.9" width="12.2" height="24.65" shape-rendering="crispEdges"/><rect fill="#000000" x="1207.8" y="391.9" width="12.2" height="24.65" shape-rendering="crispEdges"/><rect fill="#000000" x="0" y="416.3" width="12.2" height="24.65" shape-rendering="crispEdges"/><rect fill="#000000" x="12.2" y="416.3" width="12.2" height="24.65" shape-rendering="crispEdges"/><rect fill="#000000" x="24.4" y="416.3" width="1171.2" height="24.65" shape-rendering="crispEdges"/><rect fill="#000000" x="1195.6" y="416.3" width="12.2" height="24.65" shape-rendering="crispEdges"/><rect fill="#000000" x="1207.8" y="416.3" width="12.2" height="24.65" shape-rendering="crispEdges"/><rect fill="#000000" x="0" y="440.7" width="12.2" height="24.65" shape-rendering="crispEdges"/><rect fill="#000000" x="12.2" y="440.7" width="12.2" height="24.65" shape-rendering="crispEdges"/><rect fill="#000000" x="24.4" y="440.7" width="1171.2" height="24.65" shape-rendering="crispEdges"/><rect fill="#000000" x="1195.6" y="440.7" width="12.2" height="24.65" shape-rendering="crispEdges"/><rect fill="#000000" x="1207.8" y="440.7" width="12.2" height="24.65" shape-rendering="crispEdges"/><rect fill="#000000" x="0" y="465.1" width="12.2" height="24.65" shape-rendering="crispEdges"/><rect fill="#000000" x="12.2" y="465.1" width="12.2" height="24.65" shape-rendering="crispEdges"/><rect fill="#000000" x="24.4" y="465.1" width="1171.2" height="24.65" shape-rendering="crispEdges"/><rect fill="#000000" x="1195.6" y="465.1" width="12.2" height="24.65" shape-rendering="crispEdges"/><rect fill="#000000" x="1207.8" y="465.1" width="12.2" height="24.65" shape-rendering="crispEdges"/><rect fill="#000000" x="0" y="489.5" width="12.2" height="24.65" shape-rendering="crispEdges"/><rect fill="#000000" x="12.2" y="489.5" width="12.2" height="24.65" shape-rendering="crispEdges"/><rect fill="#000000" x="24.4" y="489.5" width="1171.2" height="24.65" shape-rendering="crispEdges"/><rect fill="#000000" x="1195.6" y="489.5" width="12.2" height="24.65" shape-rendering="crispEdges"/><rect fill="#000000" x="1207.8" y="489.5" width="12.2" height="24.65" shape-rendering="crispEdges"/><rect fill="#000000" x="0" y="513.9" width="12.2" height="24.65" shape-rendering="crispEdges"/><rect fill="#000000" x="12.2" y="513.9" width="12.2" height="24.65" shape-rendering="crispEdges"/><rect fill="#000000" x="24.4" y="513.9" width="1171.2" height="24.65" shape-rendering="crispEdges"/><rect fill="#000000" x="1195.6" y="513.9" width="12.2" height="24.65" shape-rendering="crispEdges"/><rect fill="#000000" x="1207.8" y="513.9" width="12.2" height="24.65" shape-rendering="crispEdges"/><rect fill="#000000" x="0" y="538.3" width="12.2" height="24.65" shape-rendering="crispEdges"/><rect fill="#000000" x="12.2" y="538.3" width="12.2" height="24.65" shape-rendering="crispEdges"/><rect fill="#000000" x="24.4" y="538.3" width="1171.2" height="24.65" shape-rendering="crispEdges"/><rect fill="#000000" x="1195.6" y="538.3" width="12.2" height="24.65" shape-rendering="crispEdges"/><rect fill="#000000" x="1207.8" y="538.3" width="12.2" height="24.65" shape-rendering="crispEdges"/><rect fill="#000000" x="0" y="562.7" width="12.2" height="24.65" shape-rendering="crispEdges"/><rect fill="#000000" x="12.2" y="562.7" width="12.2" height="24.65" shape-rendering="crispEdges"/><rect fill="#000000" x="24.4" y="562.7" width="1171.2" height="24.65" shape-rendering="crispEdges"/><rect fill="#000000" x="1195.6" y="562.7" width="12.2" height="24.65" shape-rendering="crispEdges"/><rect fill="#000000" x="1207.8" y="562.7" width="12.2" height="24.65" shape-rendering="crispEdges"/><rect fill="#000000" x="0" y="587.1" width="12.2" height="24.65" shape-rendering="crispEdges"/><rect fill="#000000" x="12.2" y="587.1" width="12.2" height="24.65" shape-rendering="crispEdges"/><rect fill="#000000" x="24.4" y="587.1" width="1171.2" height="24.65" shape-rendering="crispEdges"/><rect fill="#000000" x="1195.6" y="587.1" width="12.2" height="24.65" shape-rendering="crispEdges"/><rect fill="#000000" x="1207.8" y="587.1" width="12.2" height="24.65" shape-rendering="crispEdges"/><rect fill="#000000" x="0" y="611.5" width="12.2" height="24.65" shape-rendering="crispEdges"/><rect fill="#000000" x="12.2" y="611.5" width="12.2" height="24.65" shape-rendering="crispEdges"/><rect fill="#000000" x="24.4" y="611.5" width="1171.2" height="24.65" shape-rendering="crispEdges"/><rect fill="#000000" x="1195.6" y="611.5" width="12.2" height="24.65" shape-rendering="crispEdges"/><rect fill="#000000" x="1207.8" y="611.5" width="12.2" height="24.65" shape-rendering="crispEdges"/><rect fill="#000000" x="0" y="635.9" width="12.2" height="24.65" shape-rendering="crispEdges"/><rect fill="#000000" x="12.2" y="635.9" width="12.2" height="24.65" shape-rendering="crispEdges"/><rect fill="#000000" x="24.4" y="635.9" width="1171.2" height="24.65" shape-rendering="crispEdges"/><rect fill="#000000" x="1195.6" y="635.9" width="12.2" height="24.65" shape-rendering="crispEdges"/><rect fill="#000000" x="1207.8" y="635.9" width="12.2" height="24.65" shape-rendering="crispEdges"/><rect fill="#000000" x="0" y="660.3" width="12.2" height="24.65" shape-rendering="crispEdges"/><rect fill="#000000" x="12.2" y="660.3" width="12.2" height="24.65" shape-rendering="crispEdges"/><rect fill="#000000" x="24.4" y="660.3" width="1171.2" height="24.65" shape-rendering="crispEdges"/><rect fill="#000000" x="1195.6" y="660.3" width="12.2" height="24.65" shape-rendering="crispEdges"/><rect fill="#000000" x="1207.8" y="660.3" width="12.2" height="24.65" shape-rendering="crispEdges"/><rect fill="#000000" x="0" y="684.7" width="12.2" height="24.65" shape-rendering="crispEdges"/><rect fill="#000000" x="12.2" y="684.7" width="683.2" height="24.65" shape-rendering="crispEdges"/><rect fill="#000000" x="695.4" y="684.7" width="512.4" height="24.65" shape-rendering="crispEdges"/><rect fill="#000000" x="1207.8" y="684.7" width="12.2" height="24.65" shape-rendering="crispEdges"/><rect fill="#000000" x="0" y="709.1" width="12.2" height="24.65" shape-rendering="crispEdges"/><rect fill="#000000" x="12.2" y="709.1" width="1183.4" height="24.65" shape-rendering="crispEdges"/><rect fill="#000000" x="1195.6" y="709.1" width="12.2" height="24.65" shape-rendering="crispEdges"/><rect fill="#000000" x="1207.8" y="709.1" width="12.2" height="24.65" shape-rendering="crispEdges"/>
    <g class="terminal-1578198466-matrix">
    <text class="terminal-1578198466-r2" x="12.2" y="20" textLength="97.6" clip-path="url(#terminal-1578198466-line-0)">Context:</text><text class="terminal-1578198466-r3" x="109.8" y="20" textLength="219.6" clip-path="url(#terminal-1578198466-line-0)">&#160;kubetrol-test-one</text><text class="terminal-1578198466-r4" x="488" y="20" textLength="36.6" clip-path="url(#terminal-1578198466-line-0)">&lt;c&gt;</text><text class="terminal-1578198466-r5" x="524.6" y="20" textLength="256.2" clip-path="url(#terminal-1578198466-line-0)">&#160;Container&#160;&#160;&#160;&#160;&#160;&#160;&#160;&#160;&#160;&#160;&#160;</text><text class="terminal-1578198466-r4" x="780.8" y="20" textLength="36.6" clip-path="url(#terminal-1578198466-line-0)">&lt;w&gt;</text><text class="terminal-1578198466-r5" x="817.4" y="20" textLength="256.2" clip-path="url(#terminal-1578198466-line-0)">&#160;Wrap&#160;&#160;&#160;&#160;&#160;&#160;&#160;&#160;&#160;&#160;&#160;&#160;&#160;&#160;&#160;&#160;</text><text class="terminal-1578198466-r6" x="1085.8" y="20" textLength="122" clip-path="url(#terminal-1578198466-line-0)">┌────────┐</text><text class="terminal-1578198466-r1" x="1220" y="20" textLength="12.2" clip-path="url(#terminal-1578198466-line-0)">
</text><text class="terminal-1578198466-r2" x="12.2" y="44.4" textLength="97.6" clip-path="url(#terminal-1578198466-line-1)">Cluster:</text><text class="terminal-1578198466-r3" x="109.8" y="44.4" textLength="73.2" clip-path="url(#terminal-1578198466-line-1)">&#160;owned</text><text class="terminal-1578198466-r4" x="488" y="44.4" textLength="36.6" clip-path="url(#terminal-1578198466-line-1)">&lt;v&gt;</text><text class="terminal-1578198466-r5" x="524.6" y="44.4" textLength="256.2" clip-path="url(#terminal-1578198466-line-1)">&#160;Previous&#160;&#160;&#160;&#160;&#160;&#160;&#160;&#160;&#160;&#160;&#160;&#160;</text><text class="terminal-1578198466-r4" x="780.8" y="44.4" textLength="36.6" clip-path="url(#terminal-1578198466-line-1)">&lt;/&gt;</text><text class="terminal-1578198466-r5" x="817.4" y="44.4" textLength="256.2" clip-path="url(#terminal-1578198466-line-1)">&#160;Search&#160;&#160;&#160;&#160;&#160;&#160;&#160;&#160;&#160;&#160;&#160;&#160;&#160;&#160;</text><text class="terminal-1578198466-r6" x="1085.8" y="44.4" textLength="122" clip-path="url(#terminal-1578198466-line-1)">│kubetrol│</text><text class="terminal-1578198466-r1" x="1220" y="44.4" textLength="12.2" clip-path="url(#terminal-1578198466-line-1)">
</text><text class="terminal-1578198466-r2" x="12.2" y="68.8" textLength="61" clip-path="url(#terminal-1578198466-line-2)">User:</text><text class="terminal-1578198466-r3" x="73.2" y="68.8" textLength="73.2" clip-path="url(#terminal-1578198466-line-2)">&#160;owned</text><text class="terminal-1578198466-r4" x="488" y="68.8" textLength="36.6" clip-path="url(#terminal-1578198466-line-2)">&lt;o&gt;</text><text class="terminal-1578198466-r5" x="524.6" y="68.8" textLength="256.2" clip-path="url(#terminal-1578198466-line-2)">&#160;Read&#160;window&#160;&#160;&#160;&#160;&#160;&#160;&#160;&#160;&#160;</text><text class="terminal-1578198466-r4" x="780.8" y="68.8" textLength="97.6" clip-path="url(#terminal-1578198466-line-2)">&lt;Ctrl+Y&gt;</text><text class="terminal-1578198466-r5" x="878.4" y="68.8" textLength="195.2" clip-path="url(#terminal-1578198466-line-2)">&#160;Copy&#160;&#160;&#160;&#160;&#160;&#160;&#160;&#160;&#160;&#160;&#160;</text><text class="terminal-1578198466-r6" x="1085.8" y="68.8" textLength="122" clip-path="url(#terminal-1578198466-line-2)">└────────┘</text><text class="terminal-1578198466-r1" x="1220" y="68.8" textLength="12.2" clip-path="url(#terminal-1578198466-line-2)">
</text><text class="terminal-1578198466-r2" x="12.2" y="93.2" textLength="122" clip-path="url(#terminal-1578198466-line-3)">Namespace:</text><text class="terminal-1578198466-r3" x="134.2" y="93.2" textLength="97.6" clip-path="url(#terminal-1578198466-line-3)">&#160;team-38</text><text class="terminal-1578198466-r4" x="488" y="93.2" textLength="36.6" clip-path="url(#terminal-1578198466-line-3)">&lt;p&gt;</text><text class="terminal-1578198466-r5" x="524.6" y="93.2" textLength="256.2" clip-path="url(#terminal-1578198466-line-3)">&#160;Pause&#160;&#160;&#160;&#160;&#160;&#160;&#160;&#160;&#160;&#160;&#160;&#160;&#160;&#160;&#160;</text><text class="terminal-1578198466-r4" x="780.8" y="93.2" textLength="97.6" clip-path="url(#terminal-1578198466-line-3)">&lt;Ctrl+S&gt;</text><text class="terminal-1578198466-r5" x="878.4" y="93.2" textLength="195.2" clip-path="url(#terminal-1578198466-line-3)">&#160;Save&#160;&#160;&#160;&#160;&#160;&#160;&#160;&#160;&#160;&#160;&#160;</text><text class="terminal-1578198466-r1" x="1220" y="93.2" textLength="12.2" clip-path="url(#terminal-1578198466-line-3)">
</text><text class="terminal-1578198466-r2" x="12.2" y="117.6" textLength="73.2" clip-path="url(#terminal-1578198466-line-4)">State:</text><text class="terminal-1578198466-r3" x="85.4" y="117.6" textLength="122" clip-path="url(#terminal-1578198466-line-4)">&#160;Connected</text><text class="terminal-1578198466-r4" x="488" y="117.6" textLength="36.6" clip-path="url(#terminal-1578198466-line-4)">&lt;f&gt;</text><text class="terminal-1578198466-r5" x="524.6" y="117.6" textLength="256.2" clip-path="url(#terminal-1578198466-line-4)">&#160;Follow&#160;&#160;&#160;&#160;&#160;&#160;&#160;&#160;&#160;&#160;&#160;&#160;&#160;&#160;</text><text class="terminal-1578198466-r4" x="780.8" y="117.6" textLength="36.6" clip-path="url(#terminal-1578198466-line-4)">&lt;z&gt;</text><text class="terminal-1578198466-r5" x="817.4" y="117.6" textLength="256.2" clip-path="url(#terminal-1578198466-line-4)">&#160;Fullscreen&#160;&#160;&#160;&#160;&#160;&#160;&#160;&#160;&#160;&#160;</text><text class="terminal-1578198466-r1" x="1220" y="117.6" textLength="12.2" clip-path="url(#terminal-1578198466-line-4)">
</text><text class="terminal-1578198466-r5" x="12.2" y="142" textLength="390.4" clip-path="url(#terminal-1578198466-line-5)">Kubetrol:&#160;0.0.1.dev0&#160;·&#160;Read-only</text><text class="terminal-1578198466-r4" x="488" y="142" textLength="36.6" clip-path="url(#terminal-1578198466-line-5)">&lt;t&gt;</text><text class="terminal-1578198466-r5" x="524.6" y="142" textLength="256.2" clip-path="url(#terminal-1578198466-line-5)">&#160;Timestamps&#160;&#160;&#160;&#160;&#160;&#160;&#160;&#160;&#160;&#160;</text><text class="terminal-1578198466-r4" x="780.8" y="142" textLength="36.6" clip-path="url(#terminal-1578198466-line-5)">&lt;?&gt;</text><text class="terminal-1578198466-r5" x="817.4" y="142" textLength="256.2" clip-path="url(#terminal-1578198466-line-5)">&#160;Controls&#160;&#160;&#160;&#160;&#160;&#160;&#160;&#160;&#160;&#160;&#160;&#160;</text><text class="terminal-1578198466-r1" x="1220" y="142" textLength="12.2" clip-path="url(#terminal-1578198466-line-5)">
</text><text class="terminal-1578198466-r6" x="12.2" y="166.4" textLength="12.2" clip-path="url(#terminal-1578198466-line-6)">/</text><text class="terminal-1578198466-r7" x="36.6" y="166.4" textLength="219.6" clip-path="url(#terminal-1578198466-line-6)">Literal&#160;search&#160;·&#160;/</text><text class="terminal-1578198466-r1" x="1220" y="166.4" textLength="12.2" clip-path="url(#terminal-1578198466-line-6)">
</text><text class="terminal-1578198466-r5" x="12.2" y="190.8" textLength="585.6" clip-path="url(#terminal-1578198466-line-7)">g/G&#160;first/last&#160;·&#160;/&#160;search&#160;·&#160;p&#160;pause&#160;·&#160;?&#160;controls</text><text class="terminal-1578198466-r1" x="1220" y="190.8" textLength="12.2" clip-path="url(#terminal-1578198466-line-7)">
</text><text class="terminal-1578198466-r3" x="12.2" y="215.2" textLength="12.2" clip-path="url(#terminal-1578198466-line-8)">┌</text><text class="terminal-1578198466-r3" x="24.4" y="215.2" textLength="378.2" clip-path="url(#terminal-1578198466-line-8)">───────────────────────────────</text><text class="terminal-1578198466-r3" x="402.6" y="215.2" textLength="402.6" clip-path="url(#terminal-1578198466-line-8)">&#160;logs(team-38/api:app)&#160;·&#160;current&#160;</text><text class="terminal-1578198466-r3" x="805.2" y="215.2" textLength="390.4" clip-path="url(#terminal-1578198466-line-8)">────────────────────────────────</text><text class="terminal-1578198466-r3" x="1195.6" y="215.2" textLength="12.2" clip-path="url(#terminal-1578198466-line-8)">┐</text><text class="terminal-1578198466-r1" x="1220" y="215.2" textLength="12.2" clip-path="url(#terminal-1578198466-line-8)">
</text><text class="terminal-1578198466-r3" x="12.2" y="239.6" textLength="12.2" clip-path="url(#terminal-1578198466-line-9)">│</text><text class="terminal-1578198466-r2" x="36.6" y="239.6" textLength="658.8" clip-path="url(#terminal-1578198466-line-9)">Logs&#160;·&#160;app&#160;·&#160;current&#160;·&#160;team-38/api&#160;·&#160;kubetrol-test-one</text><text class="terminal-1578198466-r3" x="1195.6" y="239.6" textLength="12.2" clip-path="url(#terminal-1578198466-line-9)">│</text><text class="terminal-1578198466-r1" x="1220" y="239.6" textLength="12.2" clip-path="url(#terminal-1578198466-line-9)">
</text><text class="terminal-1578198466-r3" x="12.2" y="264" textLength="12.2" clip-path="url(#terminal-1578198466-line-10)">│</text><text class="terminal-1578198466-r8" x="97.6" y="264" textLength="134.2" clip-path="url(#terminal-1578198466-line-10)">&#160;Container&#160;</text><text class="terminal-1578198466-r8" x="402.6" y="264" textLength="122" clip-path="url(#terminal-1578198466-line-10)">&#160;Previous&#160;</text><text class="terminal-1578198466-r8" x="707.6" y="264" textLength="97.6" clip-path="url(#terminal-1578198466-line-10)">&#160;Window&#160;</text><text class="terminal-1578198466-r8" x="1012.6" y="264" textLength="73.2" clip-path="url(#terminal-1578198466-line-10)">&#160;Back&#160;</text><text class="terminal-1578198466-r3" x="1195.6" y="264" textLength="12.2" clip-path="url(#terminal-1578198466-line-10)">│</text><text class="terminal-1578198466-r1" x="1220" y="264" textLength="12.2" clip-path="url(#terminal-1578198466-line-10)">
</text><text class="terminal-1578198466-r3" x="12.2" y="288.4" textLength="12.2" clip-path="url(#terminal-1578198466-line-11)">│</text><text class="terminal-1578198466-r9" x="85.4" y="288.4" textLength="97.6" clip-path="url(#terminal-1578198466-line-11)">&#160;Resume&#160;</text><text class="terminal-1578198466-r8" x="317.2" y="288.4" textLength="97.6" clip-path="url(#terminal-1578198466-line-11)">&#160;Follow&#160;</text><text class="terminal-1578198466-r8" x="561.2" y="288.4" textLength="73.2" clip-path="url(#terminal-1578198466-line-11)">&#160;Wrap&#160;</text><text class="terminal-1578198466-r8" x="793" y="288.4" textLength="73.2" clip-path="url(#terminal-1578198466-line-11)">&#160;Time&#160;</text><text class="terminal-1578198466-r8" x="1037" y="288.4" textLength="73.2" clip-path="url(#terminal-1578198466-line-11)">&#160;Help&#160;</text><text class="terminal-1578198466-r3" x="1195.6" y="288.4" textLength="12.2" clip-path="url(#terminal-1578198466-line-11)">│</text><text class="terminal-1578198466-r1" x="1220" y="288.4" textLength="12.2" clip-path="url(#terminal-1578198466-line-11)">
</text><text class="terminal-1578198466-r3" x="12.2" y="312.8" textLength="12.2" clip-path="url(#terminal-1578198466-line-12)">│</text><text class="terminal-1578198466-r3" x="24.4" y="312.8" textLength="268.4" clip-path="url(#terminal-1578198466-line-12)">&#160;&#160;owned&#160;workspace&#160;line</text><text class="terminal-1578198466-r3" x="1195.6" y="312.8" textLength="12.2" clip-path="url(#terminal-1578198466-line-12)">│</text><text class="terminal-1578198466-r1" x="1220" y="312.8" textLength="12.2" clip-path="url(#terminal-1578198466-line-12)">
</text><text class="terminal-1578198466-r3" x="12.2" y="337.2" textLength="12.2" clip-path="url(#terminal-1578198466-line-13)">│</text><text class="terminal-1578198466-r3" x="1195.6" y="337.2" textLength="12.2" clip-path="url(#terminal-1578198466-line-13)">│</text><text class="terminal-1578198466-r1" x="1220" y="337.2" textLength="12.2" clip-path="url(#terminal-1578198466-line-13)">
</text><text class="terminal-1578198466-r3" x="12.2" y="361.6" textLength="12.2" clip-path="url(#terminal-1578198466-line-14)">│</text><text class="terminal-1578198466-r3" x="1195.6" y="361.6" textLength="12.2" clip-path="url(#terminal-1578198466-line-14)">│</text><text class="terminal-1578198466-r1" x="1220" y="361.6" textLength="12.2" clip-path="url(#terminal-1578198466-line-14)">
</text><text class="terminal-1578198466-r3" x="12.2" y="386" textLength="12.2" clip-path="url(#terminal-1578198466-line-15)">│</text><text class="terminal-1578198466-r3" x="1195.6" y="386" textLength="12.2" clip-path="url(#terminal-1578198466-line-15)">│</text><text class="terminal-1578198466-r1" x="1220" y="386" textLength="12.2" clip-path="url(#terminal-1578198466-line-15)">
</text><text class="terminal-1578198466-r3" x="12.2" y="410.4" textLength="12.2" clip-path="url(#terminal-1578198466-line-16)">│</text><text class="terminal-1578198466-r3" x="1195.6" y="410.4" textLength="12.2" clip-path="url(#terminal-1578198466-line-16)">│</text><text class="terminal-1578198466-r1" x="1220" y="410.4" textLength="12.2" clip-path="url(#terminal-1578198466-line-16)">
</text><text class="terminal-1578198466-r3" x="12.2" y="434.8" textLength="12.2" clip-path="url(#terminal-1578198466-line-17)">│</text><text class="terminal-1578198466-r3" x="1195.6" y="434.8" textLength="12.2" clip-path="url(#terminal-1578198466-line-17)">│</text><text class="terminal-1578198466-r1" x="1220" y="434.8" textLength="12.2" clip-path="url(#terminal-1578198466-line-17)">
</text><text class="terminal-1578198466-r3" x="12.2" y="459.2" textLength="12.2" clip-path="url(#terminal-1578198466-line-18)">│</text><text class="terminal-1578198466-r3" x="1195.6" y="459.2" textLength="12.2" clip-path="url(#terminal-1578198466-line-18)">│</text><text class="terminal-1578198466-r1" x="1220" y="459.2" textLength="12.2" clip-path="url(#terminal-1578198466-line-18)">
</text><text class="terminal-1578198466-r3" x="12.2" y="483.6" textLength="12.2" clip-path="url(#terminal-1578198466-line-19)">│</text><text class="terminal-1578198466-r3" x="1195.6" y="483.6" textLength="12.2" clip-path="url(#terminal-1578198466-line-19)">│</text><text class="terminal-1578198466-r1" x="1220" y="483.6" textLength="12.2" clip-path="url(#terminal-1578198466-line-19)">
</text><text class="terminal-1578198466-r3" x="12.2" y="508" textLength="12.2" clip-path="url(#terminal-1578198466-line-20)">│</text><text class="terminal-1578198466-r3" x="1195.6" y="508" textLength="12.2" clip-path="url(#terminal-1578198466-line-20)">│</text><text class="terminal-1578198466-r1" x="1220" y="508" textLength="12.2" clip-path="url(#terminal-1578198466-line-20)">
</text><text class="terminal-1578198466-r3" x="12.2" y="532.4" textLength="12.2" clip-path="url(#terminal-1578198466-line-21)">│</text><text class="terminal-1578198466-r3" x="1195.6" y="532.4" textLength="12.2" clip-path="url(#terminal-1578198466-line-21)">│</text><text class="terminal-1578198466-r1" x="1220" y="532.4" textLength="12.2" clip-path="url(#terminal-1578198466-line-21)">
</text><text class="terminal-1578198466-r3" x="12.2" y="556.8" textLength="12.2" clip-path="url(#terminal-1578198466-line-22)">│</text><text class="terminal-1578198466-r3" x="1195.6" y="556.8" textLength="12.2" clip-path="url(#terminal-1578198466-line-22)">│</text><text class="terminal-1578198466-r1" x="1220" y="556.8" textLength="12.2" clip-path="url(#terminal-1578198466-line-22)">
</text><text class="terminal-1578198466-r3" x="12.2" y="581.2" textLength="12.2" clip-path="url(#terminal-1578198466-line-23)">│</text><text class="terminal-1578198466-r3" x="1195.6" y="581.2" textLength="12.2" clip-path="url(#terminal-1578198466-line-23)">│</text><text class="terminal-1578198466-r1" x="1220" y="581.2" textLength="12.2" clip-path="url(#terminal-1578198466-line-23)">
</text><text class="terminal-1578198466-r3" x="12.2" y="605.6" textLength="12.2" clip-path="url(#terminal-1578198466-line-24)">│</text><text class="terminal-1578198466-r3" x="1195.6" y="605.6" textLength="12.2" clip-path="url(#terminal-1578198466-line-24)">│</text><text class="terminal-1578198466-r1" x="1220" y="605.6" textLength="12.2" clip-path="url(#terminal-1578198466-line-24)">
</text><text class="terminal-1578198466-r3" x="12.2" y="630" textLength="12.2" clip-path="url(#terminal-1578198466-line-25)">│</text><text class="terminal-1578198466-r3" x="1195.6" y="630" textLength="12.2" clip-path="url(#terminal-1578198466-line-25)">│</text><text class="terminal-1578198466-r1" x="1220" y="630" textLength="12.2" clip-path="url(#terminal-1578198466-line-25)">
</text><text class="terminal-1578198466-r3" x="12.2" y="654.4" textLength="12.2" clip-path="url(#terminal-1578198466-line-26)">│</text><text class="terminal-1578198466-r3" x="1195.6" y="654.4" textLength="12.2" clip-path="url(#terminal-1578198466-line-26)">│</text><text class="terminal-1578198466-r1" x="1220" y="654.4" textLength="12.2" clip-path="url(#terminal-1578198466-line-26)">
</text><text class="terminal-1578198466-r3" x="12.2" y="678.8" textLength="12.2" clip-path="url(#terminal-1578198466-line-27)">└</text><text class="terminal-1578198466-r3" x="24.4" y="678.8" textLength="1171.2" clip-path="url(#terminal-1578198466-line-27)">────────────────────────────────────────────────────────────────────────────────────────────────</text><text class="terminal-1578198466-r3" x="1195.6" y="678.8" textLength="12.2" clip-path="url(#terminal-1578198466-line-27)">┘</text><text class="terminal-1578198466-r1" x="1220" y="678.8" textLength="12.2" clip-path="url(#terminal-1578198466-line-27)">
</text><text class="terminal-1578198466-r2" x="12.2" y="703.2" textLength="683.2" clip-path="url(#terminal-1578198466-line-28)">namespaces&#160;&gt;&#160;pods&#160;&gt;&#160;containers&#160;&gt;&#160;logs&#160;&#160;&#160;Esc&#160;→&#160;Containers</text><text class="terminal-1578198466-r1" x="1220" y="703.2" textLength="12.2" clip-path="url(#terminal-1578198466-line-28)">
</text><text class="terminal-1578198466-r5" x="12.2" y="727.6" textLength="1183.4" clip-path="url(#terminal-1578198466-line-29)">Stream&#160;complete&#160;·&#160;Paused&#160;·&#160;Following&#160;·&#160;1&#160;retained&#160;·&#160;0&#160;dropped&#160;·&#160;Tail&#160;1000&#160;·&#160;0&#160;matching&#160;lines&#160;·&#160;no</text>
    </g>
    </g>
</svg>
